<?xml version="1.0" encoding="UTF-8"?>
<svg id="Layer_1" xmlns="http://www.w3.org/2000/svg" version="1.1" viewBox="-10.3 0 435 435">
  <!-- Generator: Adobe Illustrator 29.0.0, SVG Export Plug-In . SVG Version: 2.1.0 Build 186)  -->
  <defs>
    <style>
      .st0 {
        fill: #33245a;
      }

      .st1 {
        fill: #3b2a6d;
      }

      .st2 {
        fill: #3e2b72;
      }

      .st3 {
        fill: #b09bdd;
      }

      .st4 {
        fill: #3e2e6e;
      }

      .st5 {
        fill: #322259;
      }

      .st6 {
        fill: #443373;
      }

      .st7 {
        fill: #33225f;
      }

      .st8 {
        fill: #9179c2;
      }

      .st9 {
        fill: #b29be0;
      }

      .st10 {
        fill: #fdfdfd;
      }
    </style>
  </defs>
  <path class="st2" d="M60.8,137.4c10.7,0,20.9-.1,31.6-.1,83.4,0,166.8-.1,250.2,0,5.2,0,10.7,0,15.7,1.3,16.1,4,27.9,17,28.7,33.9,1,20.3.2,40.7.2,61.5-1.5,0-2.9,0-4.2,0-22.6,0-45.1,0-67.7,0-24,0-42.9,19.1-43,43,0,23.9,19.1,43.4,43.1,43.5,22.4.1,44.9,0,67.3,0,1.4,0,2.8,0,4.5,0,0,1.4.2,2.5.2,3.6,0,18.8,0,37.6,0,56.5,0,23.1-17.5,40.7-40.6,40.7-95,.1-190.6.4-286,0-.4-22.3,0-44.6,0-66.5-.2-72.5.3-144.9,0-217.4Z"/>
  <path class="st7" d="M60.8,137.3c.6,72.5-.2,145,0,217.5,0,21.9,0,44.2,0,66.5-15.9-.3-27.9-1.9-38-13.8-6.8-8-9.9-17.2-9.9-27.7,0-67.1,0-134.2,0-201.3,0-20.5,0-41,0-61.4,0-.8,0-1.6.2-3.2,10.2,19.4,28.2,23.7,47.8,23.6Z"/>
  <path class="st9" d="M284.5,254.8c8.8-11.9,20.7-16.2,34.8-16.1,22.2.2,44.3.2,66.5,0,9.7-.1,16,6.7,15.8,15.8-.4,15.7,0,31.4-.1,47.2,0,8.6-4.9,13.6-13.3,13.6-24.5,0-49,.2-73.4,0-28.1-.3-45.7-29.9-33-55.9.7-1.5,1.8-2.8,2.8-4.5M321.5,295.6c11-2.9,17.2-13.6,13.9-24-3.3-10.5-15.3-16-25.7-11.8-10.1,4-14.4,15.9-9.2,26.1,4.2,8.3,11.5,10.8,21,9.7Z"/>
  <path class="st3" d="M145.4,88.5c-13.8,3.6-27.6,7.2-41.4,10.8-7.2,1.9-14.5,3.6-21.6,5.7-8.9,2.7-13.2,11.3-10.9,20.6.5,1.8.9,3.7,1.5,6.3-3.3,0-6,0-8.8,0-6.7-.2-13.4-.4-20-.9-1.4-.1-3.3-1.7-3.9-3.1-1.6-4-3.6-8.3-3.6-12.4.1-6.3,4.3-10.6,10.1-12.9,43.5-17.4,87-34.7,130.4-52.2,28.9-11.6,57.6-23.6,86.4-35.4,9.4-3.8,17.5-.5,21.3,8.9,3.5,8.6,7,17.1,10.7,26.2-35.1,9-69.9,18-105.1,26.7-6.3-3.5-12.7-4.8-19.3-4.2-11.2,1-20.3,5.8-25.9,16Z"/>
  <path class="st1" d="M176.6,109.8c12.2-13.9,28.5-17.8,44.5-10.9,14.1,6,24.1,18.2,23,31.1h-76.1c.4-8.6,3.4-13.5,8.6-20.2Z"/>
  <path class="st5" d="M50.4,73.8c18.1,0,35.9,0,53.7,0,0,.2,0,.3.1.5-4.8,2-9.5,4-14.3,5.9-14.7,5.9-29.4,11.7-44.1,17.6-10.1,4.1-15.4,12.4-14.1,21.9.4,2.6,1.3,5.1,2,7.8-15.5-6.3-21.8-22.5-13.7-35.5,5.7-9.2,14.2-14.7,24.6-17.3,1.7-.4,3.6-.6,5.7-.9Z"/>
  <path class="st0" d="M331.8,77.8c-.4-1.6-.7-2.8-1-4,19.8-2.5,43.6,16.3,39.1,43.8-.3-.7-.4-1.5-.9-2.1-7-8-15.9-12.2-26.5-12.3-3.6,0-4.8-1.3-5.5-4.6-1.5-6.9-3.4-13.7-5.2-20.9Z"/>
  <path class="st8" d="M345.3,108.3c11.2,1.9,19.8,6.9,24.2,17.4,1.6,3.7,1.8,8,2.2,12.3-7.7-4.1-15.6-5.7-23.8-6-.9,0-2.4-1.2-2.6-2-2-7.2-3.7-14.4-5.5-21.8,1.9,0,3.6,0,5.5,0Z"/>
  <path class="st1" d="M159.3,105c3.4,6.4,3.1,11.7-.9,16.4-3.5,4.1-9,5.7-13.9,4.1-5.3-1.8-9-6.9-9-12.6,0-5.4,3.5-10.6,8.6-12.6,5.5-2.1,10.7-.5,15.2,4.8Z"/>
  <path class="st4" d="M288.1,77.5c4.3-1.1,8.3-2.1,12.2-3.2,2.8-.8,5-.1,5.8,2.7.8,2.8-.5,4.7-3.4,5.4-13.5,3.5-27.1,7.1-40.6,10.6-2.9.8-5.3.1-6-3-.7-3,1.1-4.5,3.8-5.2,9.3-2.4,18.6-4.8,28.3-7.3Z"/>
  <path class="st4" d="M280.6,114.7c-4,1.1-7.7,2.1-11.5,3.1-2.7.7-5,.2-5.9-2.7-.9-3,1-4.6,3.6-5.3,13.3-3.6,26.5-7.1,39.8-10.7,2.8-.8,5-.2,5.8,2.8.8,3.2-1,4.7-4,5.4-9.2,2.4-18.4,4.9-27.9,7.4Z"/>
  <path class="st6" d="M145.7,88.5c5.3-10.2,14.4-15,25.6-16,6.6-.6,13,.7,19,4.2-14.7,4.1-29.5,7.9-44.6,11.8Z"/>
  <path class="st10" d="M321.2,295.7c-9.1,1-16.5-1.4-20.7-9.8-5.2-10.2-.8-22.1,9.2-26.1,10.4-4.2,22.3,1.3,25.7,11.8,3.3,10.4-2.9,21.1-14.2,24.1Z"/>
</svg>